<mxfile host="65bd71144e">
    <diagram id="fFWN1DyNbw18HDZ8_LvJ" name="Page-1">
        <mxGraphModel dx="1407" dy="896" grid="1" gridSize="10" guides="1" tooltips="1" connect="1" arrows="1" fold="1" page="1" pageScale="1" pageWidth="1169" pageHeight="827" math="0" shadow="0">
            <root>
                <mxCell id="0"/>
                <mxCell id="1" parent="0"/>
                <mxCell id="19" value="" style="group" vertex="1" connectable="0" parent="1">
                    <mxGeometry x="200" y="40" width="120" height="160" as="geometry"/>
                </mxCell>
                <mxCell id="5" value="WebSocketServer" style="rounded=1;whiteSpace=wrap;html=1;strokeWidth=2;fontSize=13;verticalAlign=top;" vertex="1" parent="19">
                    <mxGeometry width="120" height="160" as="geometry"/>
                </mxCell>
                <mxCell id="12" value="Client 1" style="rounded=1;whiteSpace=wrap;html=1;strokeWidth=2;fontSize=13;" vertex="1" parent="19">
                    <mxGeometry x="10" y="40" width="100" height="30" as="geometry"/>
                </mxCell>
                <mxCell id="13" value="Client 2" style="rounded=1;whiteSpace=wrap;html=1;strokeWidth=2;fontSize=13;" vertex="1" parent="19">
                    <mxGeometry x="10" y="80" width="100" height="30" as="geometry"/>
                </mxCell>
                <mxCell id="14" value="Client N" style="rounded=1;whiteSpace=wrap;html=1;strokeWidth=2;fontSize=13;" vertex="1" parent="19">
                    <mxGeometry x="10" y="120" width="100" height="30" as="geometry"/>
                </mxCell>
                <mxCell id="20" value="" style="group" vertex="1" connectable="0" parent="1">
                    <mxGeometry x="40" y="40" width="120" height="70" as="geometry"/>
                </mxCell>
                <mxCell id="15" value="Client N" style="rounded=1;whiteSpace=wrap;html=1;strokeWidth=2;fontSize=13;verticalAlign=top;" vertex="1" parent="20">
                    <mxGeometry width="120" height="70" as="geometry"/>
                </mxCell>
                <mxCell id="16" value="Ws Conn" style="rounded=1;whiteSpace=wrap;html=1;strokeWidth=2;fontSize=13;" vertex="1" parent="20">
                    <mxGeometry x="10" y="30" width="100" height="30" as="geometry"/>
                </mxCell>
                <mxCell id="28" value="Actor" style="shape=umlActor;verticalLabelPosition=bottom;verticalAlign=top;html=1;outlineConnect=0;strokeWidth=2;fontSize=13;" vertex="1" parent="1">
                    <mxGeometry x="120" y="320" width="30" height="60" as="geometry"/>
                </mxCell>
            </root>
        </mxGraphModel>
    </diagram>
</mxfile>